<?xml version="1.0" encoding="UTF-8" standalone="no"?>
<svg
   id="svg8"
   version="1.1"
   viewBox="0 0 128 128"
   height="128mm"
   width="128mm"
   sodipodi:docname="icon.svg"
   inkscape:version="1.3 (0e150ed6c4, 2023-07-21)"
   xmlns:inkscape="http://www.inkscape.org/namespaces/inkscape"
   xmlns:sodipodi="http://sodipodi.sourceforge.net/DTD/sodipodi-0.dtd"
   xmlns="http://www.w3.org/2000/svg"
   xmlns:svg="http://www.w3.org/2000/svg"
   xmlns:rdf="http://www.w3.org/1999/02/22-rdf-syntax-ns#"
   xmlns:cc="http://creativecommons.org/ns#"
   xmlns:dc="http://purl.org/dc/elements/1.1/">
  <sodipodi:namedview
     id="namedview1"
     pagecolor="#ffffff"
     bordercolor="#000000"
     borderopacity="0.25"
     inkscape:showpageshadow="2"
     inkscape:pageopacity="0.0"
     inkscape:pagecheckerboard="0"
     inkscape:deskcolor="#d1d1d1"
     inkscape:document-units="mm"
     inkscape:zoom="1.2236979"
     inkscape:cx="241.48117"
     inkscape:cy="241.88976"
     inkscape:window-width="1440"
     inkscape:window-height="830"
     inkscape:window-x="-6"
     inkscape:window-y="-6"
     inkscape:window-maximized="1"
     inkscape:current-layer="layer1" />
  <defs
     id="defs2" />
  <metadata
     id="metadata5">
    <rdf:RDF>
      <cc:Work
         rdf:about="">
        <dc:format>image/svg+xml</dc:format>
        <dc:type
           rdf:resource="http://purl.org/dc/dcmitype/StillImage" />
        <dc:title />
      </cc:Work>
    </rdf:RDF>
  </metadata>
  <g
     transform="translate(0,-169)"
     id="layer1">
    <path
       style="opacity:1;fill:#ff00ff;stroke:#000000;stroke-width:18.89763804;stroke-linejoin:round;stroke-opacity:1;stroke-dasharray:none"
       d="m 219.82549,433.7968 c -9.78613,-1.1036 -25.35535,-4.47373 -35.48313,-7.68073 C 133.22562,409.92977 91.996809,374.4251 68.630534,326.46946 54.905617,298.30121 49.099325,273.15712 49.099325,241.88976 c 0,-31.24826 5.783519,-56.3092 19.527004,-84.61367 C 97.52503,97.759689 155.3964,57.035302 221.22338,49.892744 c 10.18722,-1.105364 31.14555,-1.105364 41.33277,0 65.89903,7.150376 123.4923,47.693005 152.59284,107.417326 9.39473,19.28122 14.79754,36.72879 18.09321,58.42945 1.7515,11.53289 1.9636,38.43497 0.39302,49.8489 -8.07428,58.67843 -40.12241,108.77539 -89.66798,140.16707 -22.76623,14.42451 -53.73387,25.12499 -81.41109,28.13058 -9.32987,1.01317 -33.40062,0.96288 -42.73066,-0.0893 z"
       id="path1"
       transform="matrix(0.26458333,0,0,0.26458333,0,169)" />
    <text
       xml:space="preserve"
       style="font-size:50.8px;opacity:1;fill:#000000;stroke:#000000;stroke-width:1;stroke-linejoin:round;stroke-opacity:1;fill-opacity:1"
       x="16.216217"
       y="250.94595"
       id="text1"><tspan
         sodipodi:role="line"
         id="tspan1"
         style="font-size:50.8px;fill:#000000;fill-opacity:1;stroke-width:1;stroke:#000000;stroke-opacity:1"
         x="16.216217"
         y="250.94595">&lt;//&gt;</tspan></text>
  </g>
</svg>
